<svg xmlns="http://www.w3.org/2000/svg" xmlns:xlink="http://www.w3.org/1999/xlink" width="716.418" height="191.226" viewBox="0 0 716.418 191.226">
  <defs>
    <filter id="Path_16" x="36.505" y="27.783" width="115.65" height="163.443" filterUnits="userSpaceOnUse">
      <feOffset dy="15" input="SourceAlpha"/>
      <feGaussianBlur stdDeviation="7.5" result="blur"/>
      <feFlood flood-opacity="0.259"/>
      <feComposite operator="in" in2="blur"/>
      <feComposite in="SourceGraphic"/>
    </filter>
  </defs>
  <g id="Group_8" data-name="Group 8" transform="translate(-485 -657)">
    <circle id="Ellipse_1" data-name="Ellipse 1" cx="94.5" cy="94.5" r="94.5" transform="translate(485 657)" fill="#116aef"/>
    <g transform="matrix(1, 0, 0, 1, 485, 657)" filter="url(#Path_16)">
      <path id="Path_16-2" data-name="Path 16" d="M550.995,800.546V720.718l70.65-38.615v77.4l-20.433,11.948V711.887l-6.234,3.463v59.914l-17.836,10.39V725.047l-6.407,3.81v59.568Z" transform="translate(-491.99 -646.82)" fill="#fff"/>
    </g>
    <path id="Path_181" data-name="Path 181" d="M43.13,0,24.224-61.606H23.74q.107,2.2.349,6.633t.457,9.426q.215,5,.215,9.023V0H9.883V-78.525H32.549L51.133-18.477h.322L71.167-78.525H93.833V0H78.311V-37.168q0-3.706.134-8.54t.349-9.211q.215-4.377.322-6.58h-.483L58.384,0Zm93.94-61.177a30.174,30.174,0,0,1,14.341,3.2,22.187,22.187,0,0,1,9.292,9.265,30.853,30.853,0,0,1,3.276,14.824v7.949H125.254q.269,6.929,4.163,10.876t10.823,3.948A43.858,43.858,0,0,0,150.767-12.3a53.571,53.571,0,0,0,9.829-3.545V-3.169A39.1,39.1,0,0,1,151.277.054a58.335,58.335,0,0,1-11.79,1.021,36.58,36.58,0,0,1-15.979-3.33,24.673,24.673,0,0,1-10.9-10.151q-3.948-6.821-3.948-17.187,0-10.527,3.572-17.537a24.164,24.164,0,0,1,9.963-10.527A30.363,30.363,0,0,1,137.07-61.177Zm.107,11.655a10.891,10.891,0,0,0-7.922,3.062q-3.142,3.062-3.625,9.614h22.988a16.494,16.494,0,0,0-1.316-6.5,10.324,10.324,0,0,0-3.76-4.512A11.251,11.251,0,0,0,137.178-49.521Zm59.136,50.6a20,20,0,0,1-16.355-7.869q-6.311-7.869-6.311-23.123,0-15.415,6.392-23.337a20.44,20.44,0,0,1,16.7-7.922A22.275,22.275,0,0,1,204.316-60a18.683,18.683,0,0,1,5.667,3.169,21.18,21.18,0,0,1,4.055,4.458h.537q-.322-1.719-.779-5.076a51.171,51.171,0,0,1-.457-6.9V-83.574h16.436V0H217.207l-3.169-7.788h-.7A19.984,19.984,0,0,1,209.446-3.3a17.8,17.8,0,0,1-5.559,3.2A21.987,21.987,0,0,1,196.313,1.074Zm5.747-13.052q6.714,0,9.48-4t2.927-12.058V-29.81q0-8.755-2.686-13.4t-9.99-4.646a9.621,9.621,0,0,0-8.486,4.673q-3.062,4.673-3.062,13.481t3.088,13.267A10,10,0,0,0,202.061-11.978Zm61.23-48.071V0H246.909V-60.049Zm-8.164-23.525a11.37,11.37,0,0,1,6.284,1.692q2.632,1.692,2.632,6.311,0,4.565-2.632,6.311a11.107,11.107,0,0,1-6.284,1.746,11.075,11.075,0,0,1-6.311-1.746q-2.6-1.746-2.6-6.311,0-4.619,2.6-6.311A11.337,11.337,0,0,1,255.127-83.574ZM304.863,1.074a32.754,32.754,0,0,1-15.2-3.25A21.349,21.349,0,0,1,280.1-12.246q-3.276-6.821-3.276-17.456,0-11.011,3.733-17.966A23.358,23.358,0,0,1,290.925-57.9a34.333,34.333,0,0,1,15.388-3.276,42.213,42.213,0,0,1,10.769,1.208A43.123,43.123,0,0,1,325-57.095l-4.834,12.676q-3.867-1.558-7.2-2.551a23.19,23.19,0,0,0-6.66-.994,12.065,12.065,0,0,0-7.144,2.014,11.887,11.887,0,0,0-4.243,6.042,31.2,31.2,0,0,0-1.4,10.1,27.858,27.858,0,0,0,1.5,9.883,11.844,11.844,0,0,0,4.351,5.828,12.165,12.165,0,0,0,6.929,1.907,27.8,27.8,0,0,0,9.077-1.37,34.592,34.592,0,0,0,7.734-3.84V-3.384A27.481,27.481,0,0,1,315.256.027,43.032,43.032,0,0,1,304.863,1.074Zm56.772-62.358q12.085,0,18.53,5.264t6.445,16.006V0h-11.44L372-8.164h-.43A30.431,30.431,0,0,1,366.309-2.9,18.057,18.057,0,0,1,360.132.107a32.188,32.188,0,0,1-8.486.967,21.6,21.6,0,0,1-9.534-2.041,15.11,15.11,0,0,1-6.633-6.257,21.33,21.33,0,0,1-2.417-10.715q0-9.561,6.714-14.1t20.142-5.022l10.42-.322v-2.632q0-4.727-2.471-6.929a9.974,9.974,0,0,0-6.875-2.2,30.042,30.042,0,0,0-8.54,1.235,66.2,66.2,0,0,0-8.379,3.115l-5.425-11.064a46.491,46.491,0,0,1,10.715-3.975A51.521,51.521,0,0,1,361.636-61.284Zm8.7,33.462L364-27.607q-7.949.215-11.038,2.847a8.659,8.659,0,0,0-3.088,6.929q0,3.76,2.2,5.344a9.617,9.617,0,0,0,5.747,1.584,13.167,13.167,0,0,0,8.889-3.115q3.625-3.115,3.625-8.862Zm66.655-33.354q1.235,0,2.874.134a22.168,22.168,0,0,1,2.659.349l-1.235,15.361a10.622,10.622,0,0,0-2.283-.4q-1.477-.134-2.551-.134a23.467,23.467,0,0,0-6.15.806,15.33,15.33,0,0,0-5.344,2.6,12.443,12.443,0,0,0-3.733,4.727,16.852,16.852,0,0,0-1.37,7.17V0H403.477V-60.049h12.407l2.417,10.1h.806a25.4,25.4,0,0,1,4.431-5.613,21.28,21.28,0,0,1,6.069-4.082A17.827,17.827,0,0,1,436.992-61.177Zm41.2,0a30.174,30.174,0,0,1,14.341,3.2,22.187,22.187,0,0,1,9.292,9.265A30.854,30.854,0,0,1,505.1-33.892v7.949H466.372q.269,6.929,4.163,10.876t10.823,3.948A43.858,43.858,0,0,0,491.885-12.3a53.57,53.57,0,0,0,9.829-3.545V-3.169A39.1,39.1,0,0,1,492.4.054a58.335,58.335,0,0,1-11.79,1.021,36.58,36.58,0,0,1-15.979-3.33,24.673,24.673,0,0,1-10.9-10.151q-3.948-6.821-3.948-17.187,0-10.527,3.572-17.537a24.164,24.164,0,0,1,9.963-10.527A30.363,30.363,0,0,1,478.188-61.177Zm.107,11.655a10.891,10.891,0,0,0-7.922,3.062q-3.142,3.062-3.625,9.614h22.988a16.494,16.494,0,0,0-1.316-6.5,10.324,10.324,0,0,0-3.76-4.512A11.251,11.251,0,0,0,478.3-49.521Z" transform="translate(696.32 798)"/>
    <g id="stethoscope" transform="translate(576.32 742.5)">
      <path id="Path_183" data-name="Path 183" d="M16.227,8H12.818A6.816,6.816,0,0,0,6,14.818V26.749H6a18.749,18.749,0,0,0,37.5,0V14.818A6.816,6.816,0,0,0,36.68,8H33.271" transform="translate(4.227 5.636)" fill="none" stroke="#000" stroke-linecap="round" stroke-linejoin="round" stroke-width="4"/>
      <path id="Path_184" data-name="Path 184" d="M16,34.227a20.454,20.454,0,0,0,40.907,0V24" transform="translate(11.271 16.907)" fill="none" stroke="#000" stroke-linecap="round" stroke-linejoin="round" stroke-width="4"/>
      <path id="Path_185" data-name="Path 185" d="M22,6v6.818" transform="translate(15.498 4.227)" fill="none" stroke="#000" stroke-linecap="round" stroke-linejoin="round" stroke-width="4"/>
      <path id="Path_186" data-name="Path 186" d="M12,6v6.818" transform="translate(8.454 4.227)" fill="none" stroke="#000" stroke-linecap="round" stroke-linejoin="round" stroke-width="4"/>
      <path id="Path_187" data-name="Path 187" d="M49.636,22.818A6.818,6.818,0,1,1,42.818,16,6.816,6.816,0,0,1,49.636,22.818Z" transform="translate(25.361 11.271)" fill="none" stroke="#000" stroke-linecap="round" stroke-linejoin="round" stroke-width="4"/>
      <path id="Path_188" data-name="Path 188" d="M0,0H81.814V81.814H0Z" fill="none"/>
    </g>
  </g>
</svg>
